<?xml version="1.0" encoding="utf-8"?>
<!-- Generator: Adobe Illustrator 25.0.1, SVG Export Plug-In . SVG Version: 6.00 Build 0)  -->
<svg version="1.1" xmlns="http://www.w3.org/2000/svg" xmlns:xlink="http://www.w3.org/1999/xlink" x="0px" y="0px"
	 viewBox="0 0 1920 1080" style="enable-background:new 0 0 1920 1080;" xml:space="preserve">
<style type="text/css">
	.st0{fill:#1D1D1B;}
	.st1{fill:#E6E6E6;stroke:#F15A24;stroke-miterlimit:10;}
</style>
<g id="Layer_1">
	<g>
		<path class="st0" d="M281.6,264.8v52.8H265v47.6h-57.5V238c0-24.6,6.5-43.7,19.5-57.4c13-13.6,31.2-20.4,54.8-20.4
			c22.7,0,39.4,6.2,50.3,18.5c10.9,12.4,16.3,31.4,16.3,57.2v129.3h-57.5V239.9c0-7.8-0.9-13.2-2.7-16.3c-1.8-3-5-4.5-9.6-4.5
			c-9,0-13.5,6.9-13.5,20.8v24.9H281.6z"/>
		<path class="st0" d="M466.2,165.1h53v121.8c0,22.4-5.7,40.6-17,54.7c-6.5,8.1-14.8,14.6-24.9,19.3c-10.1,4.8-20.4,7.2-31,7.2
			c-21.1,0-38.8-7.3-53.3-22s-21.7-32.6-21.7-53.9c0-20.6,7.2-38.4,21.5-53.5c14.4-15,31.4-22.6,51-22.6c3.1,0,7.8,0.3,14.2,0.9
			v60.4c-4.3-3.5-8.7-5.3-13-5.3c-5.5,0-10.2,2.1-14.1,6.2c-3.9,4.2-5.9,9.2-5.9,15c0,5.7,2,10.5,6.1,14.6c4.1,4.1,8.9,6.1,14.6,6.1
			c13.6,0,20.4-9.7,20.4-29.2V165.1z"/>
		<path class="st0" d="M653.3,219.1l-66,151.8L522,219.1h50.6l15,39.4l16.4-39.4H653.3z"/>
		<path class="st0" d="M797.8,301h-80.4c-1.2-4.2-1.8-8.1-1.8-11.6c0-4.9,0.9-9.7,2.6-14.4h26.9c-1.9-10.8-7.8-16.3-17.7-16.3
			c-6.6,0-12,2.9-16.2,8.7c-4.2,5.8-6.2,13.3-6.2,22.3c0,9.5,2,17.1,6,23c4,5.9,9.3,8.8,15.8,8.8c5.3,0,10.4-2.7,15.3-8.2l30.2,37.5
			c-14.1,11.4-29.7,17.1-46.9,17.1c-21,0-38.6-7.3-52.9-21.8c-14.3-14.6-21.4-32.6-21.4-54.1c0-21.4,7.2-39.5,21.6-54.2
			c14.4-14.8,32.1-22.1,53.1-22.1c20.5,0,37.7,7.2,51.7,21.6c13.9,14.4,20.9,32.2,20.9,53.3C798.4,292.9,798.2,296.3,797.8,301z"/>
		<path class="st0" d="M945.8,365.2h-53v-82.5c0-8.4-3.4-12.6-10.1-12.6c-6.6,0-9.9,4.2-9.9,12.6v82.5h-53v-81.5
			c0-19.1,6.1-35.1,18.3-48.1c12.2-13,27.1-19.6,44.8-19.6c20.2,0,36.4,7.6,48.6,22.7c9.5,11.8,14.3,28.3,14.3,49.4V365.2z"/>
		<path class="st0" d="M1023.8,165.1v56h23.8V279h-23.8c0,11.6,1.8,19.6,5.3,24c3.5,4.4,10,6.6,19.5,6.6v57.6
			c-2.7,0.1-4.8,0.1-6.1,0.1c-12,0-23.3-2.9-33.9-8.6c-10.6-5.8-19.2-13.6-25.6-23.4c-8.1-12.6-12.2-29.3-12.2-50.1v-120H1023.8z"/>
		<path class="st0" d="M1073.7,221.1h53v82.5c0,8.3,3.4,12.5,10.1,12.5c6.6,0,9.9-4.2,9.9-12.5v-82.5h53v81.5c0,19-6.1,35-18.3,48
			c-12.2,13-27.1,19.6-44.8,19.6c-20.1,0-36.3-7.6-48.6-22.7c-9.5-11.8-14.3-28.2-14.3-49.2V221.1z"/>
		<path class="st0" d="M1308.1,217.6v58.6c-3.7-2.1-7-3.2-10.1-3.2c-9.6,0-14.5,7.6-14.5,22.9v69.3h-53v-79.9
			c0-21.1,5.6-37.9,16.7-50.5c11.1-12.6,26-18.8,44.6-18.8C1296.1,216,1301.5,216.5,1308.1,217.6z"/>
		<path class="st0" d="M1462.6,301h-80.4c-1.2-4.2-1.8-8.1-1.8-11.6c0-4.9,0.9-9.7,2.6-14.4h26.9c-1.9-10.8-7.8-16.3-17.7-16.3
			c-6.6,0-12,2.9-16.2,8.7c-4.2,5.8-6.2,13.3-6.2,22.3c0,9.5,2,17.1,6,23c4,5.9,9.3,8.8,15.8,8.8c5.3,0,10.4-2.7,15.3-8.2l30.2,37.5
			c-14.1,11.4-29.7,17.1-46.9,17.1c-21,0-38.6-7.3-52.9-21.8c-14.3-14.6-21.4-32.6-21.4-54.1c0-21.4,7.2-39.5,21.6-54.2
			c14.4-14.8,32.1-22.1,53.1-22.1c20.5,0,37.7,7.2,51.7,21.6c13.9,14.4,20.9,32.2,20.9,53.3C1463.1,292.9,1463,296.3,1462.6,301z"/>
		<path class="st0" d="M281.6,624.9v52.8H265v47.6h-57.5V598.1c0-24.6,6.5-43.7,19.5-57.4c13-13.6,31.2-20.4,54.8-20.4
			c22.7,0,39.4,6.2,50.3,18.5c10.9,12.4,16.3,31.4,16.3,57.2v129.3h-57.5V600c0-7.8-0.9-13.2-2.7-16.3c-1.8-3-5-4.5-9.6-4.5
			c-9,0-13.5,6.9-13.5,20.8v24.9H281.6z"/>
		<path class="st0" d="M379.2,581.3h53V660c0,6.2,0.6,10.4,1.8,12.8c1.2,2.4,3.4,3.6,6.7,3.6c6,0,8.9-5.5,8.9-16.4v-78.7h53V660
			c0,6.2,0.6,10.4,1.9,12.8c1.3,2.4,3.5,3.6,6.7,3.6c5.9,0,8.8-5.5,8.8-16.4v-78.7h53v90c0,16.4-5.3,30.4-16,41.8
			c-10.7,11.5-23.6,17.2-38.8,17.2c-15.7,0-29.8-6.8-42.2-20.5c-13.8,13.7-27.7,20.5-41.7,20.5c-17.7,0-31.8-6.6-42.5-19.9
			c-8.4-10.5-12.6-25.5-12.6-45.3V581.3z"/>
		<path class="st0" d="M682.6,670.5v56.7c-4.3,0.8-8.3,1.2-11.9,1.2c-21.3,0-39-7.2-53.1-21.7c-14.2-14.5-21.3-32.6-21.3-54.4
			c0-21.2,7.2-39.2,21.5-53.9c14.3-14.8,31.7-22.1,52.2-22.1c22.9,0,40.9,6.9,54.1,20.7c13.2,13.8,19.8,32.7,19.8,56.6v71.7h-53
			v-67.7c0-7.7-1.8-13.9-5.5-18.5c-3.6-4.6-8.5-6.9-14.7-6.9c-5.6,0-10.4,2.1-14.5,6.3c-4.1,4.2-6.1,9.2-6.1,14.9
			c0,6.1,1.8,11,5.5,14.9c3.7,3.9,8.4,5.9,14,5.9C674.3,674.3,678.6,673.1,682.6,670.5z"/>
		<path class="st0" d="M827.7,579.2v146.1h-53V579.2H827.7z M801.4,514c7.2,0,13.4,2.6,18.6,7.8c5.2,5.2,7.9,11.4,7.9,18.5
			c0,7.6-2.5,13.9-7.4,18.8c-5,4.9-11.3,7.3-19.1,7.3c-7.7,0-14.1-2.4-19.1-7.3c-5-4.9-7.4-11.1-7.4-18.8c0-7.1,2.6-13.3,7.9-18.5
			C788,516.6,794.2,514,801.4,514z"/>
		<path class="st0" d="M906.1,525.3v56h23.8v57.9h-23.8c0,11.6,1.8,19.6,5.3,24c3.5,4.4,10,6.6,19.5,6.6v57.6
			c-2.7,0.1-4.8,0.1-6.1,0.1c-12,0-23.3-2.9-33.9-8.6c-10.6-5.8-19.2-13.6-25.6-23.4c-8.1-12.6-12.2-29.3-12.2-50.1v-120H906.1z"/>
		<path class="st0" d="M1044.5,581.3V639c-7.5,0-12.6,1.4-15.4,4.3c-2.8,2.9-4.6,8.6-5.3,17.1c-2.5,28.2-13,48.2-31.7,59.8
			c-9.9,6.1-24,9.1-42.2,9.1h-7.4v-58h2.4c8.5,0,14.6-1.8,18.2-5.5c3.6-3.7,5.7-10.1,6.3-19.3c0.8-14.9,2.1-25.4,4-31.5
			c1.9-6.1,5.9-12.1,11.8-18c10.4-10.5,24.8-15.7,43.2-15.7H1044.5z"/>
		<path class="st0" d="M1108.9,659.7c9.3,0,17.2,3.5,23.9,10.4c6.7,6.9,10,15.2,10,24.8c0,9.6-3.3,17.7-9.9,24.4
			c-6.6,6.7-14.6,10-23.9,10c-9.7,0-17.7-3.2-24-9.7c-6.3-6.5-9.4-14.8-9.4-24.8c0-9.8,3.3-18,9.8-24.8
			C1091.7,663.1,1099.6,659.7,1108.9,659.7z M1136.2,525.3l-1,124.1h-50.3l-3-124.1H1136.2z"/>
	</g>
</g>
<g id="Layer_2">
	<g>
		<path class="st1" d="M288.3,271.7v52.8h-16.6v47.6h-57.5V244.9c0-24.6,6.5-43.7,19.5-57.4c13-13.6,31.2-20.4,54.8-20.4
			c22.7,0,39.4,6.2,50.3,18.5c10.9,12.4,16.3,31.4,16.3,57.2v129.3h-57.5V246.8c0-7.8-0.9-13.2-2.7-16.3c-1.8-3-5-4.5-9.6-4.5
			c-9,0-13.5,6.9-13.5,20.8v24.9H288.3z"/>
		<path class="st1" d="M473,172.1h53v121.8c0,22.4-5.7,40.6-17,54.7c-6.5,8.1-14.8,14.6-24.9,19.3c-10.1,4.8-20.4,7.2-31,7.2
			c-21.1,0-38.8-7.3-53.3-22s-21.7-32.6-21.7-53.9c0-20.6,7.2-38.4,21.5-53.5c14.4-15,31.4-22.6,51-22.6c3.1,0,7.8,0.3,14.2,0.9
			v60.4c-4.3-3.5-8.7-5.3-13-5.3c-5.5,0-10.2,2.1-14.1,6.2c-3.9,4.2-5.9,9.2-5.9,15c0,5.7,2,10.5,6.1,14.6c4.1,4.1,8.9,6.1,14.6,6.1
			c13.6,0,20.4-9.7,20.4-29.2V172.1z"/>
		<path class="st1" d="M660,226l-66,151.8L528.8,226h50.6l15,39.4l16.4-39.4H660z"/>
		<path class="st1" d="M804.6,307.9h-80.4c-1.2-4.2-1.8-8.1-1.8-11.6c0-4.9,0.9-9.7,2.6-14.4h26.9c-1.9-10.8-7.8-16.3-17.7-16.3
			c-6.6,0-12,2.9-16.2,8.7c-4.2,5.8-6.2,13.3-6.2,22.3c0,9.5,2,17.1,6,23c4,5.9,9.3,8.8,15.8,8.8c5.3,0,10.4-2.7,15.3-8.2l30.2,37.5
			C765,369.3,749.3,375,732.1,375c-21,0-38.6-7.3-52.9-21.8c-14.3-14.6-21.4-32.6-21.4-54.1c0-21.4,7.2-39.5,21.6-54.2
			c14.4-14.8,32.1-22.1,53.1-22.1c20.5,0,37.7,7.2,51.7,21.6c13.9,14.4,20.9,32.2,20.9,53.3C805.1,299.8,804.9,303.2,804.6,307.9z"
			/>
		<path class="st1" d="M952.5,372.1h-53v-82.5c0-8.4-3.4-12.6-10.1-12.6c-6.6,0-9.9,4.2-9.9,12.6v82.5h-53v-81.5
			c0-19.1,6.1-35.1,18.3-48.1c12.2-13,27.1-19.6,44.8-19.6c20.2,0,36.4,7.6,48.6,22.7c9.5,11.8,14.3,28.3,14.3,49.4V372.1z"/>
		<path class="st1" d="M1030.6,172.1v56h23.8v57.9h-23.8c0,11.6,1.8,19.6,5.3,24c3.5,4.4,10,6.6,19.5,6.6v57.6
			c-2.7,0.1-4.8,0.1-6.1,0.1c-12,0-23.3-2.9-33.9-8.6c-10.6-5.8-19.2-13.6-25.6-23.4c-8.1-12.6-12.2-29.3-12.2-50.1v-120H1030.6z"/>
		<path class="st1" d="M1080.5,228h53v82.5c0,8.3,3.4,12.5,10.1,12.5c6.6,0,9.9-4.2,9.9-12.5V228h53v81.5c0,19-6.1,35-18.3,48
			c-12.2,13-27.1,19.6-44.8,19.6c-20.1,0-36.3-7.6-48.6-22.7c-9.5-11.8-14.3-28.2-14.3-49.2V228z"/>
		<path class="st1" d="M1314.9,224.5v58.6c-3.7-2.1-7-3.2-10.1-3.2c-9.6,0-14.5,7.6-14.5,22.9v69.3h-53v-79.9
			c0-21.1,5.6-37.9,16.7-50.5c11.1-12.6,26-18.8,44.6-18.8C1302.9,222.9,1308.2,223.5,1314.9,224.5z"/>
		<path class="st1" d="M1469.3,307.9H1389c-1.2-4.2-1.8-8.1-1.8-11.6c0-4.9,0.9-9.7,2.6-14.4h26.9c-1.9-10.8-7.8-16.3-17.7-16.3
			c-6.6,0-12,2.9-16.2,8.7c-4.2,5.8-6.2,13.3-6.2,22.3c0,9.5,2,17.1,6,23c4,5.9,9.3,8.8,15.8,8.8c5.3,0,10.4-2.7,15.3-8.2l30.2,37.5
			c-14.1,11.4-29.7,17.1-46.9,17.1c-21,0-38.6-7.3-52.9-21.8c-14.3-14.6-21.4-32.6-21.4-54.1c0-21.4,7.2-39.5,21.6-54.2
			c14.4-14.8,32.1-22.1,53.1-22.1c20.5,0,37.7,7.2,51.7,21.6c13.9,14.4,20.9,32.2,20.9,53.3C1469.9,299.8,1469.7,303.2,1469.3,307.9
			z"/>
		<path class="st1" d="M288.3,631.9v52.8h-16.6v47.6h-57.5V605c0-24.6,6.5-43.7,19.5-57.4c13-13.6,31.2-20.4,54.8-20.4
			c22.7,0,39.4,6.2,50.3,18.5c10.9,12.4,16.3,31.4,16.3,57.2v129.3h-57.5V606.9c0-7.8-0.9-13.2-2.7-16.3c-1.8-3-5-4.5-9.6-4.5
			c-9,0-13.5,6.9-13.5,20.8v24.9H288.3z"/>
		<path class="st1" d="M385.9,588.2h53v78.7c0,6.2,0.6,10.4,1.8,12.8c1.2,2.4,3.4,3.6,6.7,3.6c6,0,8.9-5.5,8.9-16.4v-78.7h53v78.7
			c0,6.2,0.6,10.4,1.9,12.8c1.3,2.4,3.5,3.6,6.7,3.6c5.9,0,8.8-5.5,8.8-16.4v-78.7h53v90c0,16.4-5.3,30.4-16,41.8
			c-10.7,11.5-23.6,17.2-38.8,17.2c-15.7,0-29.8-6.8-42.2-20.5c-13.8,13.7-27.7,20.5-41.7,20.5c-17.7,0-31.8-6.6-42.5-19.9
			c-8.4-10.5-12.6-25.5-12.6-45.3V588.2z"/>
		<path class="st1" d="M689.3,677.4v56.7c-4.3,0.8-8.3,1.2-11.9,1.2c-21.3,0-39-7.2-53.1-21.7C610.1,699.2,603,681,603,659.3
			c0-21.2,7.2-39.2,21.5-53.9c14.3-14.8,31.7-22.1,52.2-22.1c22.9,0,40.9,6.9,54.1,20.7c13.2,13.8,19.8,32.7,19.8,56.6v71.7h-53
			v-67.7c0-7.7-1.8-13.9-5.5-18.5c-3.6-4.6-8.5-6.9-14.7-6.9c-5.6,0-10.4,2.1-14.5,6.3c-4.1,4.2-6.1,9.2-6.1,14.9
			c0,6.1,1.8,11,5.5,14.9c3.7,3.9,8.4,5.9,14,5.9C681.1,681.2,685.4,680,689.3,677.4z"/>
		<path class="st1" d="M834.5,586.1v146.1h-53V586.1H834.5z M808.1,520.9c7.2,0,13.4,2.6,18.6,7.8c5.2,5.2,7.9,11.4,7.9,18.5
			c0,7.6-2.5,13.9-7.4,18.8c-5,4.9-11.3,7.3-19.1,7.3c-7.7,0-14.1-2.4-19.1-7.3c-5-4.9-7.4-11.1-7.4-18.8c0-7.1,2.6-13.3,7.9-18.5
			C794.7,523.5,800.9,520.9,808.1,520.9z"/>
		<path class="st1" d="M912.8,532.2v56h23.8v57.9h-23.8c0,11.6,1.8,19.6,5.3,24c3.5,4.4,10,6.6,19.5,6.6v57.6
			c-2.7,0.1-4.8,0.1-6.1,0.1c-12,0-23.3-2.9-33.9-8.6c-10.6-5.8-19.2-13.6-25.6-23.4c-8.1-12.6-12.2-29.3-12.2-50.1v-120H912.8z"/>
		<path class="st1" d="M1051.3,588.2v57.7c-7.5,0-12.6,1.4-15.4,4.3c-2.8,2.9-4.6,8.6-5.3,17.1c-2.5,28.2-13,48.2-31.7,59.8
			c-9.9,6.1-24,9.1-42.2,9.1h-7.4v-58h2.4c8.5,0,14.6-1.8,18.2-5.5c3.6-3.7,5.7-10.1,6.3-19.3c0.8-14.9,2.1-25.4,4-31.5
			c1.9-6.1,5.9-12.1,11.8-18c10.4-10.5,24.8-15.7,43.2-15.7H1051.3z"/>
		<path class="st1" d="M1115.6,666.6c9.3,0,17.2,3.5,23.9,10.4c6.7,6.9,10,15.2,10,24.8c0,9.6-3.3,17.7-9.9,24.4
			c-6.6,6.7-14.6,10-23.9,10c-9.7,0-17.7-3.2-24-9.7c-6.3-6.5-9.4-14.8-9.4-24.8c0-9.8,3.3-18,9.8-24.8
			C1098.5,670,1106.4,666.6,1115.6,666.6z M1143,532.2l-1,124.1h-50.3l-3-124.1H1143z"/>
	</g>
</g>
</svg>
