<?xml version="1.0" encoding="utf-8"?>
<!-- Generator: Adobe Illustrator 25.0.1, SVG Export Plug-In . SVG Version: 6.00 Build 0)  -->
<svg version="1.1" xmlns="http://www.w3.org/2000/svg" xmlns:xlink="http://www.w3.org/1999/xlink" x="0px" y="0px"
	 viewBox="0 0 1920 1080" style="enable-background:new 0 0 1920 1080;" xml:space="preserve">
<style type="text/css">
	.st0{fill:#1D1D1B;}
	.st1{fill:#E6E6E6;stroke:#F15A24;stroke-miterlimit:10;}
</style>
<g id="Layer_1">
	<g>
		<path class="st0" d="M162.4,166.7h93.7c55.5,0,83.3,22.6,83.3,67.8c0,22.4-9.5,41-28.5,55.9c27.6,12.4,41.4,34.5,41.4,66.2
			c0,24.4-8.1,43.8-24.4,58.2c-7.9,6.9-16.4,11.7-25.5,14.5c-9.1,2.7-21.3,4.1-36.7,4.1h-14.5v-68.6h13c7.7,0,13.1-1,16.2-3
			c3.1-2,4.7-5.6,4.7-10.6c0-8.6-6.4-12.9-19.3-12.9h-14.7v-71.1c14.1,0,21.2-5,21.2-15c0-9.2-6.4-13.9-19.1-13.9h-14.2v195.2h-76.7
			V166.7z"/>
		<path class="st0" d="M448.7,238.6v194.8H378V238.6H448.7z M413.5,151.6c9.6,0,17.9,3.5,24.8,10.5c7,7,10.5,15.2,10.5,24.7
			c0,10.2-3.3,18.5-9.9,25c-6.6,6.5-15.1,9.8-25.4,9.8c-10.3,0-18.8-3.3-25.4-9.8c-6.6-6.5-9.9-14.8-9.9-25
			c0-9.5,3.5-17.7,10.5-24.7C395.7,155.1,403.9,151.6,413.5,151.6z"/>
		<path class="st0" d="M560.9,166.7v266.7h-70.7V166.7H560.9z M669.1,238.6l-34.6,70.9L686,433.4h-78.2l-44.2-127.2l32.1-67.6H669.1
			z"/>
		<path class="st0" d="M884,347.8H776.8c-1.6-5.6-2.5-10.7-2.5-15.4c0-6.5,1.1-12.9,3.4-19.1h35.9c-2.5-14.5-10.4-21.7-23.6-21.7
			c-8.8,0-16,3.9-21.5,11.6c-5.5,7.8-8.3,17.7-8.3,29.8c0,12.6,2.7,22.9,8,30.7c5.4,7.8,12.4,11.7,21.1,11.7
			c7.1,0,13.9-3.6,20.4-10.9l40.2,50c-18.8,15.2-39.6,22.9-62.5,22.9c-28,0-51.5-9.7-70.5-29.1c-19-19.4-28.5-43.4-28.5-72.1
			c0-28.5,9.6-52.6,28.8-72.3c19.2-19.7,42.8-29.5,70.8-29.5c27.3,0,50.3,9.6,68.9,28.8c18.6,19.2,27.9,42.9,27.9,71
			C884.7,337,884.5,341.5,884,347.8z"/>
		<path class="st0" d="M1092,166.7v266.7h-76.7V166.7H1092z M1239.1,166.7l-68,120.9l67.6,145.7h-86.2l-58.4-147.3l66.1-119.4
			H1239.1z"/>
		<path class="st0" d="M1330.2,238.6v194.8h-70.7V238.6H1330.2z M1295.1,151.6c9.6,0,17.9,3.5,24.8,10.5c7,7,10.5,15.2,10.5,24.7
			c0,10.2-3.3,18.5-9.9,25c-6.6,6.5-15.1,9.8-25.4,9.8c-10.3,0-18.8-3.3-25.4-9.8c-6.6-6.5-9.9-14.8-9.9-25
			c0-9.5,3.5-17.7,10.5-24.7C1277.2,155.1,1285.5,151.6,1295.1,151.6z"/>
		<path class="st0" d="M1539.7,433.4h-70.7v-110c0-11.2-4.5-16.8-13.4-16.8c-8.8,0-13.2,5.6-13.2,16.8v110h-70.7V324.7
			c0-25.4,8.1-46.8,24.4-64.2c16.2-17.4,36.1-26.1,59.7-26.1c27,0,48.6,10.1,64.8,30.3c12.7,15.8,19.1,37.7,19.1,65.8V433.4z"/>
		<path class="st0" d="M1681.4,353.1v67c-10.2,3.9-20,5.9-29.3,5.9c-22.8,0-42.1-8.9-57.9-26.8c-15.8-17.8-23.7-39.7-23.7-65.4
			c0-27.9,9.5-51.4,28.5-70.5c19-19.1,42.4-28.7,70.1-28.7c14.7,0,28.8,3.1,42.3,9.2c13.5,6.1,24.1,14.3,31.7,24.6
			c12.8,17.1,19.3,41.8,19.3,74.2v64.1c0,34.8-9.5,63-28.6,84.7c-19.1,21.7-43.9,32.5-74.5,32.5c-9.3,0-21.1-2.4-35.3-7.2v-66.4
			c9.2,5.2,18.5,7.8,28,7.8c12.7,0,22.5-4.3,29.5-13c6.9-8.7,10.4-21.1,10.4-37.2v-73.3c0-20.4-8-30.7-24-30.7
			c-6.8,0-12.8,2.7-17.9,8.1c-5.1,5.4-7.7,11.6-7.7,18.7c0,7.4,2.4,13.6,7.3,18.6c4.8,5,10.9,7.4,18,7.4
			C1672.4,356.6,1677,355.4,1681.4,353.1z"/>
		<path class="st0" d="M353.5,646.8h93.7c55.5,0,83.3,22.6,83.3,67.8c0,22.4-9.5,41-28.5,55.9c27.6,12.4,41.4,34.5,41.4,66.2
			c0,24.4-8.1,43.8-24.4,58.2c-7.9,6.9-16.4,11.7-25.5,14.5c-9.1,2.7-21.3,4.1-36.7,4.1h-14.5v-68.6h13c7.7,0,13.1-1,16.2-3
			c3.1-2,4.7-5.6,4.7-10.6c0-8.6-6.4-12.9-19.3-12.9h-14.7v-71.1c14.1,0,21.2-5,21.2-15c0-9.2-6.4-13.9-19.1-13.9h-14.2v195.2h-76.7
			V646.8z"/>
		<path class="st0" d="M658.5,714.6c26.7,0,49.6,9.9,68.7,29.8c19.1,19.9,28.6,43.7,28.6,71.4c0,28.1-9.7,52.1-29,71.9
			c-19.3,19.8-42.7,29.7-70,29.7c-27.3,0-50.7-9.9-70.1-29.8c-19.4-19.9-29.1-43.8-29.1-71.8c0-28.5,9.7-52.5,29.1-72
			C606.1,724.4,630,714.6,658.5,714.6z M656.6,786.7c-7.6,0-14,2.8-19.3,8.5c-5.3,5.7-7.9,12.6-7.9,20.8c0,8.1,2.7,15,8,20.7
			c5.4,5.7,11.7,8.6,19.2,8.6c7.6,0,14-2.9,19.4-8.6c5.4-5.7,8-12.6,8-20.7c0-8.2-2.6-15.1-7.9-20.8
			C670.7,789.5,664.3,786.7,656.6,786.7z"/>
		<path class="st0" d="M888.6,716.8v78.1c-4.9-2.9-9.4-4.3-13.4-4.3c-12.8,0-19.3,10.2-19.3,30.5v92.4h-70.7V807
			c0-28.1,7.4-50.6,22.3-67.3c14.9-16.7,34.7-25.1,59.5-25.1C872.6,714.6,879.8,715.3,888.6,716.8z"/>
		<path class="st0" d="M1025.4,646.8h70.7v162.4c0,29.8-7.6,54.1-22.7,72.9c-8.7,10.8-19.7,19.4-33.2,25.8s-27.2,9.6-41.3,9.6
			c-28.1,0-51.8-9.8-71-29.3S899,844.6,899,816.2c0-27.5,9.6-51.3,28.7-71.3c19.1-20.1,41.8-30.1,68-30.1c4.2,0,10.5,0.4,18.9,1.2
			v80.5c-5.8-4.7-11.6-7-17.4-7c-7.3,0-13.6,2.8-18.8,8.3c-5.2,5.5-7.8,12.2-7.8,20c0,7.6,2.7,14,8.1,19.4
			c5.4,5.4,11.9,8.1,19.5,8.1c18.1,0,27.2-13,27.2-38.9V646.8z"/>
		<path class="st0" d="M1318.4,827.9h-107.1c-1.6-5.6-2.5-10.7-2.5-15.4c0-6.5,1.1-12.9,3.4-19.1h35.9
			c-2.5-14.5-10.4-21.7-23.6-21.7c-8.8,0-16,3.9-21.5,11.6c-5.5,7.8-8.3,17.7-8.3,29.8c0,12.6,2.7,22.9,8,30.7
			c5.4,7.8,12.4,11.7,21.1,11.7c7.1,0,13.9-3.6,20.4-10.9l40.2,50c-18.8,15.2-39.6,22.9-62.5,22.9c-28,0-51.5-9.7-70.5-29.1
			c-19-19.4-28.5-43.4-28.5-72.1c0-28.5,9.6-52.6,28.8-72.3c19.2-19.7,42.8-29.5,70.8-29.5c27.3,0,50.3,9.6,68.9,28.8
			c18.6,19.2,27.9,42.9,27.9,71C1319.2,817.1,1318.9,821.7,1318.4,827.9z"/>
		<path class="st0" d="M1451,716.8v78.1c-4.9-2.9-9.4-4.3-13.4-4.3c-12.8,0-19.3,10.2-19.3,30.5v92.4h-70.7V807
			c0-28.1,7.4-50.6,22.3-67.3c14.9-16.7,34.7-25.1,59.5-25.1C1435,714.6,1442.2,715.3,1451,716.8z"/>
		<path class="st0" d="M1589.9,721.5v77c-10,0-16.8,1.9-20.5,5.8c-3.7,3.8-6.1,11.4-7.1,22.8c-3.3,37.6-17.4,64.2-42.3,79.7
			c-13.2,8.1-32,12.1-56.3,12.1h-9.8v-77.4h3.2c11.3,0,19.4-2.4,24.3-7.3c4.8-4.9,7.7-13.4,8.4-25.7c1-19.9,2.8-33.9,5.4-42
			c2.6-8.1,7.8-16.1,15.8-24c13.9-13.9,33.1-20.9,57.6-20.9H1589.9z"/>
	</g>
</g>
<g id="Layer_2">
	<g>
		<path class="st1" d="M166.9,160.7h93.7c55.5,0,83.3,22.6,83.3,67.8c0,22.4-9.5,41-28.5,55.9c27.6,12.4,41.4,34.5,41.4,66.2
			c0,24.4-8.1,43.8-24.4,58.2c-7.9,6.9-16.4,11.7-25.5,14.5c-9.1,2.7-21.3,4.1-36.7,4.1h-14.5v-68.6h13c7.7,0,13.1-1,16.2-3
			c3.1-2,4.7-5.6,4.7-10.6c0-8.6-6.4-12.9-19.3-12.9h-14.7v-71.1c14.1,0,21.2-5,21.2-15c0-9.2-6.4-13.9-19.1-13.9h-14.2v195.2h-76.7
			V160.7z"/>
		<path class="st1" d="M453.2,232.6v194.8h-70.7V232.6H453.2z M418,145.6c9.6,0,17.9,3.5,24.8,10.5c7,7,10.5,15.2,10.5,24.7
			c0,10.2-3.3,18.5-9.9,25c-6.6,6.5-15.1,9.8-25.4,9.8c-10.3,0-18.8-3.3-25.4-9.8c-6.6-6.5-9.9-14.8-9.9-25
			c0-9.5,3.5-17.7,10.5-24.7C400.2,149.1,408.4,145.6,418,145.6z"/>
		<path class="st1" d="M565.4,160.7v266.7h-70.7V160.7H565.4z M673.6,232.6l-34.6,70.9l51.4,123.9h-78.2L568,300.2l32.1-67.6H673.6z
			"/>
		<path class="st1" d="M888.5,341.8H781.3c-1.6-5.6-2.5-10.7-2.5-15.4c0-6.5,1.1-12.9,3.4-19.1h35.9c-2.5-14.5-10.4-21.7-23.6-21.7
			c-8.8,0-16,3.9-21.5,11.6c-5.5,7.8-8.3,17.7-8.3,29.8c0,12.6,2.7,22.9,8,30.7c5.4,7.8,12.4,11.7,21.1,11.7
			c7.1,0,13.9-3.6,20.4-10.9l40.2,50c-18.8,15.2-39.6,22.9-62.5,22.9c-28,0-51.5-9.7-70.5-29.1c-19-19.4-28.5-43.4-28.5-72.1
			c0-28.5,9.6-52.6,28.8-72.3c19.2-19.7,42.8-29.5,70.8-29.5c27.3,0,50.3,9.6,68.9,28.8c18.6,19.2,27.9,42.9,27.9,71
			C889.2,331,889,335.5,888.5,341.8z"/>
		<path class="st1" d="M1096.5,160.7v266.7h-76.7V160.7H1096.5z M1243.6,160.7l-68,120.9l67.6,145.7h-86.2l-58.4-147.3l66.1-119.4
			H1243.6z"/>
		<path class="st1" d="M1334.7,232.6v194.8H1264V232.6H1334.7z M1299.6,145.6c9.6,0,17.9,3.5,24.8,10.5c7,7,10.5,15.2,10.5,24.7
			c0,10.2-3.3,18.5-9.9,25c-6.6,6.5-15.1,9.8-25.4,9.8c-10.3,0-18.8-3.3-25.4-9.8c-6.6-6.5-9.9-14.8-9.9-25
			c0-9.5,3.5-17.7,10.5-24.7C1281.7,149.1,1290,145.6,1299.6,145.6z"/>
		<path class="st1" d="M1544.2,427.4h-70.7v-110c0-11.2-4.5-16.8-13.4-16.8c-8.8,0-13.2,5.6-13.2,16.8v110h-70.7V318.7
			c0-25.4,8.1-46.8,24.4-64.2c16.2-17.4,36.1-26.1,59.7-26.1c27,0,48.6,10.1,64.8,30.3c12.7,15.8,19.1,37.7,19.1,65.8V427.4z"/>
		<path class="st1" d="M1685.9,347.1v67c-10.2,3.9-20,5.9-29.3,5.9c-22.8,0-42.1-8.9-57.9-26.8c-15.8-17.8-23.7-39.7-23.7-65.4
			c0-27.9,9.5-51.4,28.5-70.5c19-19.1,42.4-28.7,70.1-28.7c14.7,0,28.8,3.1,42.3,9.2c13.5,6.1,24.1,14.3,31.7,24.6
			c12.8,17.1,19.3,41.8,19.3,74.2v64.1c0,34.8-9.5,63-28.6,84.7c-19.1,21.7-43.9,32.5-74.5,32.5c-9.3,0-21.1-2.4-35.3-7.2v-66.4
			c9.2,5.2,18.5,7.8,28,7.8c12.7,0,22.5-4.3,29.5-13c6.9-8.7,10.4-21.1,10.4-37.2v-73.3c0-20.4-8-30.7-24-30.7
			c-6.8,0-12.8,2.7-17.9,8.1c-5.1,5.4-7.7,11.6-7.7,18.7c0,7.4,2.4,13.6,7.3,18.6c4.8,5,10.9,7.4,18,7.4
			C1676.9,350.6,1681.5,349.4,1685.9,347.1z"/>
		<path class="st1" d="M358,640.8h93.7c55.5,0,83.3,22.6,83.3,67.8c0,22.4-9.5,41-28.5,55.9c27.6,12.4,41.4,34.5,41.4,66.2
			c0,24.4-8.1,43.8-24.4,58.2c-7.9,6.9-16.4,11.7-25.5,14.5c-9.1,2.7-21.3,4.1-36.7,4.1h-14.5v-68.6h13c7.7,0,13.1-1,16.2-3
			c3.1-2,4.7-5.6,4.7-10.6c0-8.6-6.4-12.9-19.3-12.9h-14.7v-71.1c14.1,0,21.2-5,21.2-15c0-9.2-6.4-13.9-19.1-13.9h-14.2v195.2H358
			V640.8z"/>
		<path class="st1" d="M663,708.6c26.7,0,49.6,9.9,68.7,29.8c19.1,19.9,28.6,43.7,28.6,71.4c0,28.1-9.7,52.1-29,71.9
			c-19.3,19.8-42.7,29.7-70,29.7c-27.3,0-50.7-9.9-70.1-29.8c-19.4-19.9-29.1-43.8-29.1-71.8c0-28.5,9.7-52.5,29.1-72
			C610.6,718.4,634.5,708.6,663,708.6z M661.1,780.7c-7.6,0-14,2.8-19.3,8.5c-5.3,5.7-7.9,12.6-7.9,20.8c0,8.1,2.7,15,8,20.7
			c5.4,5.7,11.7,8.6,19.2,8.6c7.6,0,14-2.9,19.4-8.6c5.4-5.7,8-12.6,8-20.7c0-8.2-2.6-15.1-7.9-20.8
			C675.2,783.5,668.8,780.7,661.1,780.7z"/>
		<path class="st1" d="M893.1,710.8v78.1c-4.9-2.9-9.4-4.3-13.4-4.3c-12.8,0-19.3,10.2-19.3,30.5v92.4h-70.7V801
			c0-28.1,7.4-50.6,22.3-67.3c14.9-16.7,34.7-25.1,59.5-25.1C877.1,708.6,884.3,709.3,893.1,710.8z"/>
		<path class="st1" d="M1029.9,640.8h70.7v162.4c0,29.8-7.6,54.1-22.7,72.9c-8.7,10.8-19.7,19.4-33.2,25.8s-27.2,9.6-41.3,9.6
			c-28.1,0-51.8-9.8-71-29.3s-28.9-43.5-28.9-71.9c0-27.5,9.6-51.3,28.7-71.3c19.1-20.1,41.8-30.1,68-30.1c4.2,0,10.5,0.4,18.9,1.2
			v80.5c-5.8-4.7-11.6-7-17.4-7c-7.3,0-13.6,2.8-18.8,8.3c-5.2,5.5-7.8,12.2-7.8,20c0,7.6,2.7,14,8.1,19.4
			c5.4,5.4,11.9,8.1,19.5,8.1c18.1,0,27.2-13,27.2-38.9V640.8z"/>
		<path class="st1" d="M1322.9,821.9h-107.1c-1.6-5.6-2.5-10.7-2.5-15.4c0-6.5,1.1-12.9,3.4-19.1h35.9
			c-2.5-14.5-10.4-21.7-23.6-21.7c-8.8,0-16,3.9-21.5,11.6c-5.5,7.8-8.3,17.7-8.3,29.8c0,12.6,2.7,22.9,8,30.7
			c5.4,7.8,12.4,11.7,21.1,11.7c7.1,0,13.9-3.6,20.4-10.9l40.2,50c-18.8,15.2-39.6,22.9-62.5,22.9c-28,0-51.5-9.7-70.5-29.1
			c-19-19.4-28.5-43.4-28.5-72.1c0-28.5,9.6-52.6,28.8-72.3c19.2-19.7,42.8-29.5,70.8-29.5c27.3,0,50.3,9.6,68.9,28.8
			c18.6,19.2,27.9,42.9,27.9,71C1323.7,811.1,1323.4,815.7,1322.9,821.9z"/>
		<path class="st1" d="M1455.5,710.8v78.1c-4.9-2.9-9.4-4.3-13.4-4.3c-12.8,0-19.3,10.2-19.3,30.5v92.4h-70.7V801
			c0-28.1,7.4-50.6,22.3-67.3c14.9-16.7,34.7-25.1,59.5-25.1C1439.5,708.6,1446.7,709.3,1455.5,710.8z"/>
		<path class="st1" d="M1594.4,715.5v77c-10,0-16.8,1.9-20.5,5.8c-3.7,3.8-6.1,11.4-7.1,22.8c-3.3,37.6-17.4,64.2-42.3,79.7
			c-13.2,8.1-32,12.1-56.3,12.1h-9.8v-77.4h3.2c11.3,0,19.4-2.4,24.3-7.3c4.8-4.9,7.7-13.4,8.4-25.7c1-19.9,2.8-33.9,5.4-42
			c2.6-8.1,7.8-16.1,15.8-24c13.9-13.9,33.1-20.9,57.6-20.9H1594.4z"/>
	</g>
</g>
</svg>
